{"accessors" : [{"bufferView" : 0, "byteOffset" : 0, "componentType" : 5123, "count" : 33792, "type" : "SCALAR", "max" : [6919], "min" : [0]}, {"bufferView" : 1, "byteOffset" : 0, "componentType" : 5126, "count" : 6920, "type" : "VEC3", "max" : [1.3016407489776611, 2.812310218811035, 0.8108211755752563], "min" : [-1.3016406297683716, -1.469813346862793, -2.349644422531128], "name" : "POSITION"}, {"bufferView" : 1, "byteOffset" : 12, "componentType" : 5126, "count" : 6920, "type" : "VEC3", "max" : [0.9999523758888245, 1.0000044107437134, 0.9997098445892334], "min" : [-0.9999523758888245, -1.0000044107437134, -0.9999755024909973], "name" : "NORMAL"}, {"bufferView" : 1, "byteOffset" : 24, "componentType" : 5126, "count" : 6920, "type" : "VEC2", "max" : [0.7500002384185791, 0.625], "min" : [0.25, 0.1249997615814209], "name" : "TEXCOORD_0"}, {"bufferView" : 0, "byteOffset" : 67584, "componentType" : 5123, "count" : 16896, "type" : "SCALAR", "max" : [3236], "min" : [0]}, {"bufferView" : 2, "byteOffset" : 0, "componentType" : 5126, "count" : 3237, "type" : "VEC3", "max" : [0.8104820847511292, 1.0165679454803467, 0.8016656637191772], "min" : [-0.8104821443557739, -0.8117280006408691, -0.801856279373169], "name" : "POSITION"}, {"bufferView" : 2, "byteOffset" : 12, "componentType" : 5126, "count" : 3237, "type" : "VEC3", "max" : [0.9997391700744629, 1.0000039339065552, 1.0000040531158447], "min" : [-0.9997391700744629, -1.0000044107437134, -1.000001072883606], "name" : "NORMAL"}, {"bufferView" : 2, "byteOffset" : 24, "componentType" : 5126, "count" : 3237, "type" : "VEC2", "max" : [0.7500001788139343, 0.6249999403953552], "min" : [0.25, 0.12499982118606567], "name" : "TEXCOORD_0"}, {"bufferView" : 0, "byteOffset" : 101376, "componentType" : 5123, "count" : 3072, "type" : "SCALAR", "max" : [580], "min" : [0]}, {"bufferView" : 3, "byteOffset" : 0, "componentType" : 5126, "count" : 581, "type" : "VEC3", "max" : [0.7198833227157593, 0.970932126045227, 0.10522358864545822], "min" : [-0.7198833227157593, 0.5469119548797607, -0.004867812618613243], "name" : "POSITION"}, {"bufferView" : 3, "byteOffset" : 12, "componentType" : 5126, "count" : 581, "type" : "VEC3", "max" : [0.9932430982589722, 0.9905797243118286, 0.9971795678138733], "min" : [-0.9932430386543274, -0.9968658089637756, -0.9992738962173462], "name" : "NORMAL"}, {"bufferView" : 3, "byteOffset" : 24, "componentType" : 5126, "count" : 581, "type" : "VEC2", "max" : [0.6665722131729126, 0.33191126585006714], "min" : [0.5834361910820007, 0.3313440680503845], "name" : "TEXCOORD_0"}, {"bufferView" : 0, "byteOffset" : 107520, "componentType" : 5123, "count" : 4608, "type" : "SCALAR", "max" : [881], "min" : [0]}, {"bufferView" : 4, "byteOffset" : 0, "componentType" : 5126, "count" : 882, "type" : "VEC3", "max" : [0.8395062685012817, 0.8540186285972595, 0.8395062685012817], "min" : [-5.865484714508057, -0.8395062685012817, -5.773499488830566], "name" : "POSITION"}, {"bufferView" : 4, "byteOffset" : 12, "componentType" : 5126, "count" : 882, "type" : "VEC3", "max" : [1.0000044107437134, 1.0000044107437134, 1.0000044107437134], "min" : [-1.0000044107437134, -1.0000044107437134, -1.0000044107437134], "name" : "NORMAL"}, {"bufferView" : 4, "byteOffset" : 24, "componentType" : 5126, "count" : 882, "type" : "VEC2", "max" : [0.8750001192092896, 1], "min" : [0.1250000149011612, -1.1920928955078125E-07], "name" : "TEXCOORD_0"}, {"bufferView" : 0, "byteOffset" : 116736, "componentType" : 5123, "count" : 2304, "type" : "SCALAR", "max" : [440], "min" : [0]}, {"bufferView" : 5, "byteOffset" : 0, "componentType" : 5126, "count" : 441, "type" : "VEC3", "max" : [0.6895869970321655, 0.874625563621521, 0.6895864009857178], "min" : [-0.6895870566368103, -0.436984658241272, -0.6895875930786133], "name" : "POSITION"}, {"bufferView" : 5, "byteOffset" : 12, "componentType" : 5126, "count" : 441, "type" : "VEC3", "max" : [0.9987541437149048, 1.0000044107437134, 0.9987541437149048], "min" : [-0.9987541437149048, -1.0000044107437134, -0.9987541437149048], "name" : "NORMAL"}, {"bufferView" : 5, "byteOffset" : 24, "componentType" : 5126, "count" : 441, "type" : "VEC2", "max" : [0.8750001192092896, 1], "min" : [0.1250000149011612, -1.1920928955078125E-07], "name" : "TEXCOORD_0"}, {"bufferView" : 0, "byteOffset" : 121344, "componentType" : 5123, "count" : 13824, "type" : "SCALAR", "max" : [2615], "min" : [0]}, {"bufferView" : 6, "byteOffset" : 0, "componentType" : 5126, "count" : 2616, "type" : "VEC3", "max" : [4.71388053894043, 0.5399825572967529, 0.9793678522109985], "min" : [-6.609070777893066, -3.408676862716675, -3.0518312454223633], "name" : "POSITION"}, {"bufferView" : 6, "byteOffset" : 12, "componentType" : 5126, "count" : 2616, "type" : "VEC3", "max" : [0.9997205138206482, 0.9996193051338196, 0.9907884001731873], "min" : [-0.9994806051254272, -0.9997240900993347, -0.9825897216796875], "name" : "NORMAL"}, {"bufferView" : 6, "byteOffset" : 24, "componentType" : 5126, "count" : 2616, "type" : "VEC2", "max" : [0.8750001192092896, 1], "min" : [0.1250000149011612, -1.1920928955078125E-07], "name" : "TEXCOORD_0"}, {"bufferView" : 0, "byteOffset" : 148992, "componentType" : 5123, "count" : 32256, "type" : "SCALAR", "max" : [5903], "min" : [0]}, {"bufferView" : 7, "byteOffset" : 0, "componentType" : 5126, "count" : 5904, "type" : "VEC3", "max" : [51.393672943115234, 15.98912239074707, 20.06199836730957], "min" : [-34.428741455078125, -12.084090232849121, -7.294525146484375], "name" : "POSITION"}, {"bufferView" : 7, "byteOffset" : 12, "componentType" : 5126, "count" : 5904, "type" : "VEC3", "max" : [0.9988613128662109, 0.9999803304672241, 0.9963728189468384], "min" : [-0.9990391731262207, -0.9998857378959656, -0.9996225237846375], "name" : "NORMAL"}, {"bufferView" : 7, "byteOffset" : 24, "componentType" : 5126, "count" : 5904, "type" : "VEC2", "max" : [0.3750000596046448, 0.5], "min" : [0.125, 0.24999988079071045], "name" : "TEXCOORD_0"}, {"bufferView" : 0, "byteOffset" : 213504, "componentType" : 5123, "count" : 13824, "type" : "SCALAR", "max" : [2599], "min" : [0]}, {"bufferView" : 8, "byteOffset" : 0, "componentType" : 5126, "count" : 2600, "type" : "VEC3", "max" : [1.0336976051330566, 0.12878695130348206, 1.0336977243423462], "min" : [-1.033697485923767, -0.12878698110580444, -1.0336976051330566], "name" : "POSITION"}, {"bufferView" : 8, "byteOffset" : 12, "componentType" : 5126, "count" : 2600, "type" : "VEC3", "max" : [1.0000044107437134, 0.9999604821205139, 1.0000044107437134], "min" : [-1.0000044107437134, -0.9999604821205139, -1.0000044107437134], "name" : "NORMAL"}, {"bufferView" : 8, "byteOffset" : 24, "componentType" : 5126, "count" : 2600, "type" : "VEC2", "max" : [1.0000001192092896, 1], "min" : [-4.440892627896218E-16, -1.1920928955078125E-07], "name" : "TEXCOORD_0"}, {"bufferView" : 0, "byteOffset" : 241152, "componentType" : 5123, "count" : 130176, "type" : "SCALAR", "max" : [23473], "min" : [0]}, {"bufferView" : 9, "byteOffset" : 0, "componentType" : 5126, "count" : 23474, "type" : "VEC3", "max" : [0.9499189257621765, 0.8015922904014587, 0.9499189257621765], "min" : [-0.9499189257621765, -0.8202804327011108, -0.9499189257621765], "name" : "POSITION"}, {"bufferView" : 9, "byteOffset" : 12, "componentType" : 5126, "count" : 23474, "type" : "VEC3", "max" : [1.0000044107437134, 1.0000044107437134, 1.0000044107437134], "min" : [-1.0000044107437134, -1.0000044107437134, -1.0000044107437134], "name" : "NORMAL"}, {"bufferView" : 9, "byteOffset" : 24, "componentType" : 5126, "count" : 23474, "type" : "VEC2", "max" : [0.8750002384185791, 1], "min" : [0.1250000149011612, -2.384185791015625E-07], "name" : "TEXCOORD_0"}], "asset" : {"generator" : "Aspose.3D 24.9.1", "version" : "2.0"}, "buffers" : [{"uri" : "data:application/octet-stream;base64,", "byteLength" : 1994504}], "bufferViews" : [{"buffer" : 0, "byteOffset" : 0, "byteLength" : 501504, "target" : 34963}, {"buffer" : 0, "byteOffset" : 501508, "byteLength" : 221440, "byteStride" : 32, "target" : 34962}, {"buffer" : 0, "byteOffset" : 722952, "byteLength" : 103584, "byteStride" : 32, "target" : 34962}, {"buffer" : 0, "byteOffset" : 826540, "byteLength" : 18592, "byteStride" : 32, "target" : 34962}, {"buffer" : 0, "byteOffset" : 845136, "byteLength" : 28224, "byteStride" : 32, "target" : 34962}, {"buffer" : 0, "byteOffset" : 873364, "byteLength" : 14112, "byteStride" : 32, "target" : 34962}, {"buffer" : 0, "byteOffset" : 887480, "byteLength" : 83712, "byteStride" : 32, "target" : 34962}, {"buffer" : 0, "byteOffset" : 971196, "byteLength" : 188928, "byteStride" : 32, "target" : 34962}, {"buffer" : 0, "byteOffset" : 1160128, "byteLength" : 83200, "byteStride" : 32, "target" : 34962}, {"buffer" : 0, "byteOffset" : 1243332, "byteLength" : 751168, "byteStride" : 32, "target" : 34962}], "materials" : [{"name" : "Material", "pbrMetallicRoughness" : {"baseColorFactor" : [0.021757256239652634, 0.021757256239652634, 0.021757256239652634, 1], "metallicFactor" : 1, "roughnessFactor" : 1}, "emissiveFactor" : [1, 1, 1], "alphaMode" : "OPAQUE", "doubleSided" : false}, {"name" : ".004", "pbrMetallicRoughness" : {"baseColorFactor" : [0.8008112907409668, 0.21958127617835999, 0.6031196713447571, 1], "metallicFactor" : 1, "roughnessFactor" : 1}, "emissiveFactor" : [1, 1, 1], "alphaMode" : "OPAQUE", "doubleSided" : false}, {"name" : ".001", "pbrMetallicRoughness" : {"baseColorFactor" : [0.08753164857625961, 0.0036013827193528414, 0.24109411239624023, 1], "metallicFactor" : 1, "roughnessFactor" : 1}, "emissiveFactor" : [1, 1, 1], "alphaMode" : "OPAQUE", "doubleSided" : false}, {"name" : ".006", "pbrMetallicRoughness" : {"baseColorFactor" : [0, 0, 0, 1], "metallicFactor" : 1, "roughnessFactor" : 1}, "emissiveFactor" : [1, 1, 1], "alphaMode" : "OPAQUE", "doubleSided" : false}, {"name" : ".003", "pbrMetallicRoughness" : {"baseColorFactor" : [0.422518789768219, 0, 0.0019673043861985207, 1], "metallicFactor" : 1, "roughnessFactor" : 1}, "emissiveFactor" : [1, 1, 1], "alphaMode" : "OPAQUE", "doubleSided" : false}, {"name" : ".005", "pbrMetallicRoughness" : {"baseColorFactor" : [0.8002825975418091, 0.504531979560852, 0, 1], "metallicFactor" : 1, "roughnessFactor" : 1}, "emissiveFactor" : [1, 1, 1], "alphaMode" : "OPAQUE", "doubleSided" : false}], "meshes" : [{"primitives" : [{"attributes" : {"POSITION" : 1, "NORMAL" : 2, "TEXCOORD_0" : 3}, "indices" : 0, "material" : 0, "mode" : 4}], "name" : "Cube.001"}, {"primitives" : [{"attributes" : {"POSITION" : 5, "NORMAL" : 6, "TEXCOORD_0" : 7}, "indices" : 4, "material" : 0, "mode" : 4}], "name" : ".007"}, {"primitives" : [{"attributes" : {"POSITION" : 9, "NORMAL" : 10, "TEXCOORD_0" : 11}, "indices" : 8, "material" : 1, "mode" : 4}], "name" : ""}, {"primitives" : [{"attributes" : {"POSITION" : 13, "NORMAL" : 14, "TEXCOORD_0" : 15}, "indices" : 12, "material" : 2, "mode" : 4}], "name" : ".008"}, {"primitives" : [{"attributes" : {"POSITION" : 17, "NORMAL" : 18, "TEXCOORD_0" : 19}, "indices" : 16, "material" : 3, "mode" : 4}], "name" : ".001"}, {"primitives" : [{"attributes" : {"POSITION" : 21, "NORMAL" : 22, "TEXCOORD_0" : 23}, "indices" : 20, "material" : 3, "mode" : 4}], "name" : ".009"}, {"primitives" : [{"attributes" : {"POSITION" : 25, "NORMAL" : 26, "TEXCOORD_0" : 27}, "indices" : 24, "material" : 3, "mode" : 4}], "name" : ".010"}, {"primitives" : [{"attributes" : {"POSITION" : 29, "NORMAL" : 30, "TEXCOORD_0" : 31}, "indices" : 28, "material" : 4, "mode" : 4}], "name" : ".002"}, {"primitives" : [{"attributes" : {"POSITION" : 33, "NORMAL" : 34, "TEXCOORD_0" : 35}, "indices" : 32, "material" : 5, "mode" : 4}], "name" : ".011"}], "nodes" : [{"matrix" : [0.8180069327354431, 0, 0, 0, 0, 0.8830000162124634, 0, 0, 0, 0, 0.8830000162124634, 0, 0, 0, 0, 1], "mesh" : 0, "name" : "Cube"}, {"matrix" : [1.549321174621582, 0, 0, 0, 0, 1.3705644607543945, 0, 0, 0, 0, 1.2900676727294922, 0, 0, 1.0369514226913452, 1.2430288791656494, 1], "mesh" : 1, "name" : ""}, {"matrix" : [1.549321174621582, 0, 0, 0, 0, 1.3705644607543945, 0, 0, 0, 0, 1.3456507921218872, 0, 0, 1.0369514226913452, 1.2430288791656494, 1], "mesh" : 2, "name" : ".001"}, {"matrix" : [0.19319933379189017, -0.0010237527126914158, -0.06328960186440422, 0, -0.0005440276092644412, 0.20324328948407766, -0.004948311118956098, 0, 0.02480058251535267, 0.00190884743257626, 0.07567596715398943, 0, 0.551744282245636, 0.9545827507972717, 2.195627212524414, 1], "mesh" : 3, "name" : ".002"}, {"matrix" : [0.12421297281980515, 0, 0, 0, 0, 0.12421297281980515, 0, 0, 0, 0, 0.048669349402189255, 0, 0.00944545678794384, 0.727169930934906, 2.2569491863250732, 1], "mesh" : 4, "name" : ".003"}, {"matrix" : [0.03923367808326997, 0.006951819100886666, -0.0002701904660779421, 0, -0.006950030653653243, 0.03923401502970948, 0.0002683653304713735, 0, 0.00011906044653848325, -8.26234213957483E-05, 0.015162622916975349, 0, 0.028388919308781624, 0.70075923204422, 2.2495501041412354, 1], "mesh" : 5, "name" : ".004"}, {"matrix" : [0.03294813574156957, 0.005838084276345762, -0.0002269038396178337, 0, -0.0058365819110249165, 0.032948416213985636, 0.00022537105680056271, 0, 9.998604202950747E-05, -6.938649551080471E-05, 0.012733453437740077, 0, -0.2766662836074829, 0.7529873847961426, 2.073565721511841, 1], "mesh" : 6, "name" : ".005"}, {"matrix" : [0.6362577676773071, -1.0128014514194124E-16, -4.278041649719587E-17, 0, 1.0128013693705698E-16, 0.4435918490281088, 0.45612522228608854, 0, -4.2780435921776403E-17, -0.45612522228608854, 0.4435918490281088, 0, 5.639073538997731E-17, 0.2539612948894501, 0.5388474464416504, 1], "mesh" : 7, "name" : ""}, {"matrix" : [0.32026901841163635, 1.5477254576558407E-17, -1.7046673034849305E-18, 0, -1.547725335488149E-17, 0.31259185455589866, -0.06970335379403757, 0, -1.7046651606224934E-18, 0.06970335379403757, 0.31259185455589866, 0, -0.0067955804988741875, -0.3582194149494171, 0.9534045457839966, 1], "mesh" : 8, "name" : ".006"}], "scene" : 0, "scenes" : [{"nodes" : [0, 1, 2, 3, 4, 5, 6, 7, 8]}]}
